HIERARCHY
ROOT joint_Root
{
	OFFSET 0.0 0.0 0.0
	CHANNELS 6 Xposition Yposition Zposition Zrotation Xrotation Yrotation 
	JOINT Hips
	{
		OFFSET -0.726466 93.3139 -2.00062
		CHANNELS 6 Xposition Yposition Zposition Zrotation Xrotation Yrotation 
		JOINT Spine
		{
			OFFSET 15.7357 0.0 0.0
			CHANNELS 6 Xposition Yposition Zposition Zrotation Xrotation Yrotation 
			JOINT Chest
			{
				OFFSET 8.98455 -0.406207 0.0
				CHANNELS 6 Xposition Yposition Zposition Zrotation Xrotation Yrotation 
				JOINT Neck
				{
					OFFSET 16.3773 0.0 0.0
					CHANNELS 6 Xposition Yposition Zposition Zrotation Xrotation Yrotation 
					JOINT Head
					{
						OFFSET 6.45672 0.0 0.0
						CHANNELS 6 Xposition Yposition Zposition Zrotation Xrotation Yrotation 
						End Site
						{
							OFFSET 0.0 0.0 0.0
						}
					}
				}
				JOINT Shoulder_L
				{
					OFFSET 12.9942 -0.242716 4.98039
					CHANNELS 6 Xposition Yposition Zposition Zrotation Xrotation Yrotation 
					JOINT UpperArm_L
					{
						OFFSET 5.34809 0.0 0.0
						CHANNELS 6 Xposition Yposition Zposition Zrotation Xrotation Yrotation 
						JOINT LowerArm_L
						{
							OFFSET 24.3286 1.87007e-05 0.0
							CHANNELS 6 Xposition Yposition Zposition Zrotation Xrotation Yrotation 
							JOINT Hand_L
							{
								OFFSET 22.2916 0.0 0.0
								CHANNELS 6 Xposition Yposition Zposition Zrotation Xrotation Yrotation 
								End Site
								{
									OFFSET 0.0 0.0 0.0
								}
							}
						}
					}
				}
				JOINT Shoulder_R
				{
					OFFSET 12.9945 -0.242716 -4.98039
					CHANNELS 6 Xposition Yposition Zposition Zrotation Xrotation Yrotation 
					JOINT UpperArm_R
					{
						OFFSET -5.34813 0.0 0.0
						CHANNELS 6 Xposition Yposition Zposition Zrotation Xrotation Yrotation 
						JOINT LowerArm_R
						{
							OFFSET -24.3289 0.000322201 0.0
							CHANNELS 6 Xposition Yposition Zposition Zrotation Xrotation Yrotation 
							JOINT Hand_R
							{
								OFFSET -22.2915 -0.000108084 0.0
								CHANNELS 6 Xposition Yposition Zposition Zrotation Xrotation Yrotation 
								End Site
								{
									OFFSET 0.0 0.0 0.0
								}
							}
						}
					}
				}
			}
		}
		JOINT UpperLeg_L
		{
			OFFSET -2.19248 -6.46944 0.0
			CHANNELS 6 Xposition Yposition Zposition Zrotation Xrotation Yrotation 
			JOINT LowerLeg_L
			{
				OFFSET 39.0811 0.0 -1.23785e-05
				CHANNELS 6 Xposition Yposition Zposition Zrotation Xrotation Yrotation 
				JOINT Foot_L
				{
					OFFSET 40.9854 0.0 -1.26872e-05
					CHANNELS 6 Xposition Yposition Zposition Zrotation Xrotation Yrotation 
					JOINT Toes_L
					{
						OFFSET 11.7543 0.0 0.0
						CHANNELS 6 Xposition Yposition Zposition Zrotation Xrotation Yrotation 
						End Site
						{
							OFFSET 0.0 0.0 0.0
						}
					}
				}
			}
		}
		JOINT UpperLeg_R
		{
			OFFSET -2.19251 6.46944 0.0
			CHANNELS 6 Xposition Yposition Zposition Zrotation Xrotation Yrotation 
			JOINT LowerLeg_R
			{
				OFFSET -39.0811 -0.00228153 -0.0401928
				CHANNELS 6 Xposition Yposition Zposition Zrotation Xrotation Yrotation 
				JOINT Foot_R
				{
					OFFSET -40.9854 0.0 0.0
					CHANNELS 6 Xposition Yposition Zposition Zrotation Xrotation Yrotation 
					JOINT Toes_R
					{
						OFFSET -11.7543 0.0 0.0
						CHANNELS 6 Xposition Yposition Zposition Zrotation Xrotation Yrotation 
						End Site
						{
							OFFSET 0.0 0.0 0.0
						}
					}
				}
			}
		}
	}
}
MOTION
Frames:	5
Frame Time:	0.0333333
0.000000 0.000000 0.000000 0.000000 0.000000 -0.000000 -0.311212 81.307500 -446.996000 85.033400 -2.329380 -8.699270 15.735700 0.000005 -0.000001 99.579300 78.387100 -95.552300 8.984550 -0.406207 -0.000000 15.030300 4.068730 7.525040 16.377300 -0.000001 -0.000001 2.704820 -2.157490 0.382085 6.456720 -0.000001 -0.000000 -7.832750 -4.216840 -6.806130 12.994200 -0.242716 4.980390 -87.920000 -5.055710 -67.603500 5.348090 -0.000007 -0.000001 -64.760100 35.235900 1.686310 24.328600 0.000019 0.000005 0.246503 0.230161 -46.960700 22.291600 -0.000001 0.000005 -0.997773 5.624310 -12.913000 12.994500 -0.242716 -4.980390 90.003400 -0.010434 -70.729700 -5.348130 -0.000001 -0.000004 -36.711200 30.041100 -36.043400 -24.328900 0.000322 -0.000009 -13.279700 -8.963270 -56.569300 -22.291500 -0.000108 -0.000004 3.773400 5.535750 -8.048140 -2.192480 -6.469440 -0.000000 -174.623000 -4.030190 -25.444300 39.081100 -0.000007 -0.000012 -0.104779 0.000708 89.618000 40.985400 -0.000006 -0.000013 4.523240 -3.002540 -50.675200 11.754300 -0.000000 0.000003 -0.005861 -0.069576 -19.408300 -2.192510 6.469440 -0.000001 -172.823000 18.465900 152.182000 -39.081100 -0.002282 -0.040193 0.053371 -0.026177 62.453900 -40.985400 0.000008 0.000006 2.384250 -3.108070 -88.042000 -11.754300 -0.000006 -0.000006 -0.004965 -0.061121 -19.060000
0.000000 0.000000 0.000000 0.000000 0.000000 -0.000000 -0.135361 82.566500 -440.607000 87.571900 -3.949230 -9.789410 15.735700 0.000005 -0.000001 104.241000 79.117600 -101.739000 8.984550 -0.406207 -0.000000 13.257600 5.417600 4.377120 16.377300 -0.000001 -0.000001 2.680120 -2.632100 0.593207 6.456720 -0.000001 -0.000000 -6.811910 -6.508270 -6.076130 12.994200 -0.242716 4.980390 -87.486700 -5.739370 -66.303100 5.348090 -0.000007 -0.000001 -64.366100 35.238700 7.132700 24.328600 0.000019 0.000005 0.230534 0.211423 -47.485500 22.291600 -0.000001 0.000005 -2.233520 5.615170 -12.288400 12.994500 -0.242716 -4.980390 90.624500 -1.815890 -71.012600 -5.348130 -0.000001 -0.000004 -33.847100 28.233600 -39.481100 -24.328900 0.000322 -0.000009 -13.232100 -7.944690 -59.551500 -22.291500 -0.000108 -0.000004 3.010090 5.538730 -8.184840 -2.192480 -6.469440 -0.000000 -178.559000 -5.699030 -33.698100 39.081100 -0.000007 -0.000012 -0.100745 -0.001291 90.739700 40.985400 -0.000006 -0.000013 6.071020 -4.118750 -55.463900 11.754300 -0.000000 0.000003 -0.006701 -0.077086 -19.714700 -2.192510 6.469440 -0.000001 -177.705000 18.946000 158.626000 -39.081100 -0.002282 -0.040193 0.035510 -0.020996 56.969100 -40.985400 0.000008 0.000006 1.648120 -0.202030 -87.265900 -11.754300 -0.000006 -0.000006 -0.009810 -0.102214 -20.737400
0.000000 0.000000 0.000000 0.000000 0.000000 -0.000000 0.149054 84.752500 -433.677000 89.886500 -5.791140 -10.189900 15.735700 0.000005 -0.000001 108.703000 79.411500 -107.777000 8.984550 -0.406207 -0.000000 12.300100 6.765350 1.124280 16.377300 -0.000001 -0.000001 2.909640 -2.954210 1.099820 6.456720 -0.000001 -0.000000 -5.980530 -8.336040 -4.898840 12.994200 -0.242716 4.980390 -87.233500 -5.937010 -64.959100 5.348090 -0.000007 -0.000001 -63.269700 34.439900 11.617700 24.328600 0.000019 0.000005 -0.121085 -0.108218 -48.216200 22.291600 -0.000001 0.000005 -3.343640 5.613660 -12.193600 12.994500 -0.242716 -4.980390 91.248600 -3.677160 -71.228600 -5.348130 -0.000001 -0.000004 -32.843900 26.932100 -41.129600 -24.328900 0.000322 -0.000009 -11.927800 -6.548470 -61.635500 -22.291500 -0.000108 -0.000004 2.808420 5.535680 -8.047960 -2.192480 -6.469440 -0.000000 177.906000 -7.140000 -38.713600 39.081100 -0.000007 -0.000012 -0.046537 0.003556 85.640500 40.985400 -0.000006 -0.000013 5.860280 -5.134600 -59.601000 11.754300 -0.000000 0.000003 -0.005188 -0.063283 -19.151800 -2.192510 6.469440 -0.000001 177.250000 18.111400 166.990000 -39.081100 -0.002282 -0.040193 0.020486 -0.015480 48.063900 -40.985400 0.000008 0.000006 0.889594 2.110140 -81.913200 -11.754300 -0.000006 -0.000006 -0.027122 -0.203955 -24.922100
0.000000 0.000000 0.000000 0.000000 0.000000 -0.000000 0.502966 87.676900 -426.616000 91.372800 -7.484780 -10.987600 15.735700 0.000005 -0.000001 112.852000 79.695800 -113.235000 8.984550 -0.406207 -0.000000 11.330800 7.928920 -1.554020 16.377300 -0.000001 -0.000001 3.468600 -3.064090 1.452290 6.456720 -0.000001 -0.000000 -5.622370 -9.604020 -3.584360 12.994200 -0.242716 4.980390 -86.954200 -6.172820 -63.672200 5.348090 -0.000007 -0.000001 -63.170400 33.206100 15.231000 24.328600 0.000019 0.000005 0.360365 0.324562 -48.004000 22.291600 -0.000001 0.000005 -2.741640 5.614330 -12.240400 12.994500 -0.242716 -4.980390 91.839500 -5.425240 -71.237900 -5.348130 -0.000001 -0.000004 -32.902900 26.783300 -41.802200 -24.328900 0.000322 -0.000009 -9.859850 -5.147000 -62.697200 -22.291500 -0.000108 -0.000004 3.093170 5.537110 -8.111330 -2.192480 -6.469440 -0.000000 175.504000 -7.677720 -41.442000 39.081100 -0.000007 -0.000012 0.009504 -0.002545 74.969700 40.985400 -0.000006 -0.000013 5.558120 -5.471460 -63.024400 11.754300 -0.000000 0.000003 -0.005642 -0.067553 -19.325800 -2.192510 6.469440 -0.000001 173.429000 16.592100 174.119000 -39.081100 -0.002282 -0.040193 0.022253 -0.024110 38.196100 -40.985400 0.000008 0.000006 -0.135682 3.908900 -69.709900 -11.754300 -0.000006 -0.000006 -0.091894 -0.423985 -34.230900
0.000000 0.000000 0.000000 0.000000 0.000000 -0.000000 0.940802 90.728400 -419.807000 91.744800 -9.294260 -12.702800 15.735700 0.000005 -0.000001 117.542000 80.049100 -118.898000 8.984550 -0.406207 -0.000000 10.084600 9.117490 -3.520280 16.377300 -0.000001 -0.000001 4.001110 -2.995720 1.642990 6.456720 -0.000001 -0.000000 -5.542740 -10.390300 -2.507260 12.994200 -0.242716 4.980390 -86.407800 -6.998980 -62.743000 5.348090 -0.000007 -0.000001 -64.978400 30.423800 18.067300 24.328600 0.000019 0.000005 1.242900 1.154810 -47.116100 22.291600 -0.000001 0.000005 -2.623270 5.604390 -11.608300 12.994500 -0.242716 -4.980390 92.347100 -6.935530 -71.250500 -5.348130 -0.000001 -0.000004 -33.757500 27.053300 -41.779200 -24.328900 0.000322 -0.000009 -8.188010 -4.152960 -63.280500 -22.291500 -0.000108 -0.000004 2.658160 5.533860 -7.965400 -2.192480 -6.469440 -0.000000 174.516000 -7.761960 -42.277600 39.081100 -0.000007 -0.000012 0.037357 -0.022402 59.044100 40.985400 -0.000006 -0.000013 5.317330 -5.162940 -65.361400 11.754300 -0.000000 0.000003 -0.005687 -0.067974 -19.343000 -2.192510 6.469440 -0.000001 170.962000 17.191500 177.621000 -39.081100 -0.002282 -0.040193 0.065548 -0.105945 30.436100 -40.985400 0.000008 0.000006 0.570388 7.125620 -52.216900 -11.754300 -0.000006 -0.000006 -0.203993 -0.651694 -44.534700
